<?xml version="1.0" standalone="no"?>
<!DOCTYPE svg PUBLIC "-//W3C//DTD SVG 20010904//EN"
 "http://www.w3.org/TR/2001/REC-SVG-20010904/DTD/svg10.dtd">
<svg version="1.0" xmlns="http://www.w3.org/2000/svg"
 width="400.000000pt" height="400.000000pt" viewBox="0 0 400.000000 400.000000"
 preserveAspectRatio="xMidYMid meet">

<g transform="translate(0.000000,400.000000) scale(0.100000,-0.100000)"
fill="#000000" stroke="none">
<path d="M1848 3475 c-2 -2 -31 -5 -66 -8 -35 -4 -66 -8 -71 -11 -4 -3 -20 -7
-36 -10 -68 -12 -254 -134 -323 -211 -62 -69 -82 -95 -82 -105 0 -6 -4 -10
-10 -10 -22 0 -25 -2 -34 -23 -8 -19 -10 -20 -13 -4 -3 9 -11 17 -19 17 -18 0
-36 -42 -21 -52 14 -8 18 -36 6 -44 -5 -3 -9 4 -9 15 0 11 -9 25 -20 31 -16 8
-20 8 -18 -2 2 -8 -6 -12 -19 -11 -21 3 -28 -7 -24 -30 1 -5 -3 -6 -9 -2 -6 3
-8 10 -5 15 3 4 -3 14 -13 21 -14 11 -15 11 -5 0 6 -7 9 -20 6 -27 -3 -8 -1
-20 4 -27 24 -30 21 -43 -8 -43 -15 0 -31 6 -33 13 -6 15 -42 18 -50 4 -6 -8
28 -59 49 -73 5 -4 10 -13 10 -20 0 -7 10 -13 22 -12 12 0 20 -3 18 -7 -3 -4
2 -12 10 -19 17 -14 21 -35 5 -25 -5 3 -7 0 -4 -8 2 -7 0 -26 -6 -42 -9 -24
-8 -30 10 -42 11 -8 20 -20 20 -28 0 -8 9 -19 19 -25 11 -5 23 -20 27 -32 3
-13 15 -31 25 -41 11 -10 19 -32 19 -50 0 -18 11 -49 26 -70 14 -21 23 -45 20
-52 -3 -8 -1 -17 4 -20 22 -14 37 -65 32 -113 -5 -55 22 -197 40 -208 6 -4 8
-3 5 2 -3 6 -1 16 4 24 8 12 10 9 6 -10 -2 -14 -6 -32 -8 -40 -2 -8 1 -14 8
-13 14 3 27 -32 18 -47 -3 -6 1 -13 9 -16 9 -3 18 -22 22 -42 11 -61 55 -164
91 -212 l35 -45 -6 -161 c-5 -131 -4 -163 7 -173 8 -6 23 -33 32 -59 10 -26
29 -65 41 -87 13 -22 33 -60 46 -85 13 -25 25 -47 28 -50 3 -3 16 -22 30 -42
19 -29 45 -47 112 -78 69 -32 91 -48 104 -73 9 -18 18 -34 20 -35 1 -2 39 33
83 79 45 46 81 78 81 72 0 -7 -4 -14 -9 -18 -12 -7 -7 -56 5 -53 5 2 8 11 7
21 -2 10 0 16 5 14 4 -3 8 8 9 24 1 15 -2 31 -7 34 -6 4 -10 31 -10 61 0 52 2
57 50 107 27 29 50 55 50 58 0 4 17 27 38 52 20 25 45 61 56 79 l19 33 -30
-30 c-73 -74 -184 -156 -190 -139 -2 6 -16 9 -31 7 -15 -3 -42 2 -61 10 l-34
15 31 7 c33 7 43 31 17 41 -10 4 -14 17 -12 40 2 29 7 36 40 49 35 14 52 45
25 45 -7 0 -1 11 14 25 15 14 32 25 39 25 6 0 9 8 6 19 -3 13 1 21 14 24 21 6
26 -8 7 -16 -8 -3 -6 -6 5 -6 11 -1 17 6 17 23 0 17 9 28 33 40 17 8 28 16 23
16 -6 0 -1 7 10 16 10 8 13 13 7 9 -7 -3 -13 -1 -13 5 0 7 9 14 20 17 11 3 20
13 20 23 0 9 9 25 21 36 12 10 33 39 47 64 14 25 30 48 35 51 5 4 6 12 3 18
-4 6 -3 11 1 11 5 0 10 16 11 36 3 40 27 94 42 94 6 0 5 9 -2 20 -7 11 -16 20
-20 20 -10 0 -39 -64 -47 -101 -3 -16 -11 -29 -16 -27 -6 2 -9 8 -7 13 2 7 0
7 -6 0 -5 -5 -13 -21 -17 -35 -5 -19 -4 -21 4 -10 5 8 13 12 16 8 12 -12 -5
-46 -27 -51 -19 -5 -20 -3 -15 31 5 32 4 34 -6 17 -11 -20 -13 -25 -16 -45 0
-6 -7 -10 -13 -8 -20 4 -58 -34 -58 -59 0 -13 -4 -23 -10 -23 -5 0 -10 4 -10
10 0 6 -9 6 -25 0 -22 -8 -25 -7 -26 13 -1 17 -2 18 -6 4 -2 -9 -9 -15 -14
-12 -5 4 -9 -3 -9 -14 0 -22 -16 -37 -22 -20 -3 9 -10 8 -25 -1 -12 -8 -19
-20 -15 -28 3 -10 1 -13 -5 -9 -6 4 -14 1 -17 -5 -3 -7 -3 -3 0 9 4 17 1 20
-14 17 -21 -6 -72 40 -72 65 0 18 47 44 62 34 15 -8 -2 58 -18 75 -8 7 -23 14
-34 15 -20 1 -20 2 -3 17 10 8 16 14 14 13 -2 -1 -13 3 -24 8 -14 8 -21 8 -26
0 -5 -7 -19 -5 -44 6 -51 23 -48 43 6 43 23 0 71 3 107 6 l65 5 53 -49 52 -48
-5 -53 c-4 -47 -3 -51 11 -37 8 9 12 21 8 27 -5 8 -1 8 14 0 30 -16 39 -14 45
10 4 16 2 19 -10 15 -12 -5 -13 -3 -5 7 17 20 -2 135 -28 162 -22 23 -82 45
-115 42 -11 -1 -19 3 -18 11 2 6 -1 12 -6 12 -5 0 -12 -6 -14 -12 -3 -8 -6 -5
-6 5 -1 10 -6 15 -12 12 -5 -4 -15 7 -22 24 -6 17 -15 31 -20 31 -4 0 -5 4 -2
10 4 7 -2 7 -19 1 -36 -14 -56 11 -20 27 31 15 74 16 74 2 0 -13 37 -13 45 1
12 19 -4 55 -31 68 -20 9 -35 9 -59 1 -26 -9 -41 -8 -70 5 -44 18 -48 18 -40
5 3 -5 -1 -10 -9 -10 -9 0 -16 5 -16 10 0 6 -11 10 -23 10 -27 0 -57 -28 -57
-54 0 -9 -4 -14 -10 -11 -26 16 4 85 37 85 6 0 23 16 38 36 16 21 33 33 41 30
11 -4 14 3 13 32 -2 40 15 92 30 92 5 0 9 16 9 35 0 35 20 65 44 65 18 0 58
-37 58 -53 1 -7 15 -28 33 -48 37 -43 120 -97 111 -74 -5 12 3 15 38 15 55 0
62 7 43 37 -15 23 -15 23 24 23 22 0 41 -5 43 -12 5 -14 38 -3 38 12 0 6 -12
15 -27 21 -38 14 -103 59 -103 72 0 6 16 7 40 3 44 -7 52 0 18 14 -23 9 -23 9
-2 9 15 1 24 9 28 26 4 15 15 27 29 30 53 11 62 10 61 -8 -1 -9 10 -30 25 -46
48 -52 54 -75 59 -256 4 -142 2 -176 -12 -209 -23 -55 -21 -56 24 -7 30 33 40
52 40 77 0 26 -4 32 -15 28 -12 -5 -15 4 -15 46 0 48 2 51 22 48 19 -2 25 -12
33 -58 l9 -55 7 55 c3 30 6 49 7 43 6 -40 44 25 58 97 3 19 11 41 17 48 6 7
12 29 14 49 2 20 13 49 25 65 17 24 21 45 21 109 0 44 -3 82 -7 86 -3 3 -15
-2 -25 -11 -11 -10 -26 -16 -33 -13 -8 3 -4 9 12 15 l25 11 -25 1 c-14 1 -20
4 -15 6 11 4 8 74 -3 74 -3 0 -13 -7 -23 -16 -13 -12 -19 -12 -25 -3 -4 8 -3
10 4 5 7 -4 12 -1 12 7 0 10 -7 14 -22 10 -20 -4 -21 -3 -5 7 9 6 17 20 17 30
0 22 -16 27 -23 8 -3 -7 -6 -3 -6 10 -1 13 -5 21 -10 17 -5 -3 -12 -1 -16 5
-3 5 7 13 22 16 24 6 25 8 8 14 -11 4 -23 3 -26 -2 -8 -12 -39 1 -39 17 0 7
-6 16 -12 18 -10 4 -10 8 0 15 11 7 8 11 -12 16 -14 3 -26 11 -26 16 0 6 -7
10 -16 10 -9 0 -12 5 -8 11 5 8 -1 10 -19 5 -14 -3 -29 -2 -32 4 -3 5 -1 10 6
10 7 0 10 2 7 5 -8 9 -38 -6 -32 -16 9 -15 -3 -10 -17 8 -8 10 -9 14 -2 10 6
-4 14 -3 18 3 3 5 15 10 25 10 10 0 31 5 47 12 15 6 33 10 38 9 6 -1 5 3 -2
10 -13 13 -58 16 -88 5 -11 -4 -8 0 8 9 30 18 35 33 12 42 -20 7 -33 -6 -17
-16 23 -14 -40 -34 -69 -22 l-24 10 28 0 c30 1 37 17 10 25 -10 3 -6 4 10 2
33 -4 35 1 5 14 -18 7 -15 8 16 5 21 -2 44 -9 49 -14 17 -17 27 -13 27 9 0 11
-7 20 -15 20 -8 0 -15 6 -15 13 0 8 -3 8 -9 -2 -8 -12 -12 -12 -25 -2 -9 8
-16 21 -16 30 0 18 -53 54 -85 59 -33 4 -39 4 -64 -4 -17 -5 -22 -4 -17 5 4 6
11 9 16 6 5 -3 12 0 16 6 8 13 -17 32 -28 21 -5 -5 -25 -6 -45 -3 l-38 5 40 6
c40 5 56 29 25 37 -12 4 -12 3 -1 -5 22 -15 -4 -23 -33 -9 -14 7 -24 17 -21
24 2 7 0 15 -6 18 -5 4 -8 3 -7 -2 2 -4 -1 -8 -7 -8 -5 0 -9 4 -7 9 2 5 -4 6
-13 2 -9 -3 -18 0 -21 9 -6 15 -112 50 -122 41 -3 -3 4 -14 15 -23 20 -18 19
-18 -29 -18 -47 0 -48 0 -21 12 15 7 22 12 15 13 -7 0 -11 4 -8 8 4 7 -19 13
-26 7z m172 -69 c0 -2 -7 -7 -16 -10 -8 -3 -12 -2 -9 4 6 10 25 14 25 6z m85
-94 c-3 -3 -11 0 -18 7 -9 10 -8 11 6 5 10 -3 15 -9 12 -12z m155 -16 c0 -3
-4 -8 -10 -11 -5 -3 -10 -1 -10 4 0 6 5 11 10 11 6 0 10 -2 10 -4z m37 -44
c-14 -3 -16 -7 -6 -18 9 -11 8 -14 -4 -14 -17 0 -32 34 -22 50 4 7 14 6 28 -2
20 -11 20 -13 4 -16z m-64 -59 c-7 -2 -21 -2 -30 0 -10 3 -4 5 12 5 17 0 24
-2 18 -5z m172 -63 c3 -5 2 -10 -4 -10 -5 0 -13 5 -16 10 -3 6 -2 10 4 10 5 0
13 -4 16 -10z m-1130 -40 c0 -7 -10 -14 -21 -15 -19 -1 -20 1 -11 17 13 20 32
19 32 -2z m-50 -50 c-3 -5 -12 -10 -18 -10 -7 0 -6 4 3 10 19 12 23 12 15 0z
m-110 -170 c3 -5 2 -10 -4 -10 -5 0 -13 5 -16 10 -3 6 -2 10 4 10 5 0 13 -4
16 -10z m355 -284 c0 -7 -7 -19 -15 -26 -8 -7 -15 -19 -15 -27 0 -8 -4 -12 -9
-8 -6 3 -12 -16 -16 -42 -3 -27 -8 -60 -10 -75 -3 -21 3 -35 28 -58 18 -16 35
-30 39 -30 3 0 9 -14 13 -31 4 -17 13 -33 21 -36 8 -3 14 -11 14 -19 0 -8 6
-24 13 -35 10 -17 9 -23 -1 -26 -6 -3 -9 -9 -6 -15 16 -25 33 -152 23 -164 -7
-8 -7 -14 1 -19 27 -16 6 -26 -47 -21 -62 6 -68 11 -77 68 -4 21 -10 37 -15
34 -4 -3 -8 8 -9 25 0 17 -5 36 -10 42 -6 7 -17 47 -27 89 -14 66 -15 88 -5
150 6 40 12 88 13 106 0 21 3 28 9 20 5 -8 8 1 8 25 0 20 5 37 10 37 6 0 15
10 20 23 7 17 9 18 9 5 1 -25 21 -23 21 2 0 11 5 20 10 20 6 0 10 -6 10 -14z
m18 -76 c-7 -10 -14 -17 -17 -15 -4 4 18 35 25 35 2 0 -1 -9 -8 -20z m527
-510 c-3 -5 -12 -10 -18 -10 -7 0 -6 4 3 10 19 12 23 12 15 0z m-475 -74 c0
-3 -4 -8 -10 -11 -5 -3 -10 -1 -10 4 0 6 5 11 10 11 6 0 10 -2 10 -4z m530
-700 c0 -3 -4 -8 -10 -11 -5 -3 -10 -1 -10 4 0 6 5 11 10 11 6 0 10 -2 10 -4z
m-250 -151 c0 -15 -26 -32 -36 -23 -2 3 -2 13 2 22 8 20 34 21 34 1z"/>
<path d="M2446 3095 c4 -9 13 -15 21 -13 23 5 20 23 -4 26 -18 3 -21 0 -17
-13z"/>
<path d="M2388 3083 c7 -3 16 -2 19 1 4 3 -2 6 -13 5 -11 0 -14 -3 -6 -6z"/>
<path d="M2424 3061 c3 -5 15 -7 26 -4 28 7 25 13 -6 13 -14 0 -23 -4 -20 -9z"/>
<path d="M2486 2992 c-2 -4 -1 -14 3 -21 6 -9 10 -7 14 8 5 20 -7 29 -17 13z"/>
<path d="M2625 2870 c-3 -5 -1 -10 4 -10 6 0 11 5 11 10 0 6 -2 10 -4 10 -3 0
-8 -4 -11 -10z"/>
<path d="M2274 2553 c2 -10 6 -17 10 -16 15 3 16 11 2 22 -12 10 -14 9 -12 -6z"/>
<path d="M2067 2234 c6 -15 23 -19 23 -5 0 5 -7 11 -14 14 -10 4 -13 1 -9 -9z"/>
<path d="M1991 1844 c0 -11 3 -14 6 -6 3 7 2 16 -1 19 -3 4 -6 -2 -5 -13z"/>
<path d="M1427 1443 c-68 -86 -67 -85 -157 -116 -41 -14 -133 -47 -205 -72
-71 -26 -179 -61 -240 -80 -184 -55 -290 -102 -334 -145 -34 -34 -54 -92 -72
-200 -6 -41 -34 -149 -61 -240 -30 -102 -55 -209 -64 -280 -8 -63 -19 -131
-24 -150 -5 -19 -12 -63 -16 -97 l-7 -63 702 0 702 0 -6 23 c-10 34 -13 49
-19 87 -4 19 -11 53 -17 75 -6 22 -14 60 -19 85 -5 25 -13 65 -19 90 -5 25
-15 86 -21 135 -6 50 -18 111 -26 137 -9 26 -13 51 -10 56 3 5 -1 26 -9 48
-16 43 -21 158 -6 135 7 -11 10 -9 15 7 4 11 13 23 21 26 21 8 75 -4 75 -17 0
-6 3 -7 7 -4 3 4 13 -2 20 -13 8 -11 19 -18 24 -14 15 9 36 -12 68 -70 32 -56
90 -120 100 -110 3 3 -1 11 -9 17 -8 7 -22 24 -30 38 -8 14 -32 50 -52 80 -21
30 -46 65 -55 79 l-17 25 27 -24 c15 -14 30 -22 33 -19 9 10 -38 58 -57 58
-19 0 -103 113 -93 123 7 6 -17 77 -26 77 -12 -1 -28 -17 -43 -46 -9 -17 -22
-36 -30 -42 -12 -10 -13 -4 -6 39 5 29 3 93 -3 152 -15 134 -14 183 5 235 8
23 13 42 11 42 -2 0 -27 -30 -57 -67z"/>
<path d="M2070 1460 c0 -6 7 -10 15 -10 8 0 15 2 15 4 0 2 -7 6 -15 10 -8 3
-15 1 -15 -4z"/>
<path d="M2352 1410 c0 -21 -5 -55 -10 -77 -6 -21 -15 -83 -22 -138 -6 -55
-13 -115 -16 -134 l-6 -34 -24 44 c-49 86 -118 134 -106 74 2 -15 0 -25 -7
-25 -6 0 -11 -4 -11 -10 0 -5 7 -10 15 -10 19 0 19 -29 1 -98 -14 -56 -12 -60
21 -37 21 15 24 14 48 -23 26 -40 31 -60 26 -122 -2 -27 -4 -31 -10 -16 -6 16
-10 13 -24 -22 -21 -52 -21 -71 -2 -78 20 -8 19 -29 -6 -132 -24 -105 -33
-148 -53 -272 -9 -52 -22 -124 -30 -160 -8 -36 -17 -82 -20 -102 l-7 -38 740
0 c579 0 740 3 744 13 6 19 -4 47 -17 47 -8 0 -12 16 -11 43 2 51 -3 67 -21
67 -8 0 -14 6 -14 14 0 8 -6 17 -12 19 -7 3 -2 6 11 6 19 1 21 4 11 15 -6 8
-18 12 -26 9 -8 -3 -14 0 -14 6 0 6 5 11 11 11 5 0 7 5 4 10 -4 6 -15 8 -25 5
-14 -4 -17 0 -17 20 0 26 12 34 19 13 3 -7 7 -6 11 5 5 12 1 17 -13 17 -11 0
-20 5 -20 10 0 6 5 10 12 10 7 0 5 7 -5 18 -11 12 -14 29 -10 60 4 28 2 42 -6
42 -6 0 -11 -13 -11 -30 0 -16 -4 -30 -10 -30 -5 0 -10 9 -10 19 0 11 -8 22
-17 24 -14 4 -12 5 5 6 22 1 32 21 11 21 -8 0 -8 4 -2 12 6 7 13 20 16 29 4
13 1 16 -15 11 -17 -4 -20 -2 -15 11 4 10 2 17 -2 17 -5 0 -12 28 -16 63 -6
45 -10 57 -16 42 -7 -18 -8 -18 -8 -2 -1 10 -5 15 -11 12 -5 -3 -10 1 -10 9 0
8 5 18 10 21 6 3 10 12 10 18 0 7 -4 6 -10 -3 -8 -12 -10 -11 -10 8 0 12 -4
22 -10 22 -15 0 -12 26 4 39 11 10 15 8 19 -6 3 -10 4 -6 3 9 -2 29 -16 52
-16 27 0 -11 -2 -11 -10 1 -5 8 -9 46 -9 84 1 45 -3 71 -11 76 -7 5 -10 16 -6
25 11 29 -24 93 -60 110 -38 18 -54 19 -54 4 0 -5 4 -8 9 -4 11 6 55 -49 66
-82 3 -13 2 -23 -4 -23 -5 0 -12 14 -16 30 -4 18 -11 27 -18 23 -6 -4 -8 0 -4
10 6 16 -4 22 -26 18 -5 -1 -11 8 -14 19 -3 11 -9 20 -14 20 -5 0 -9 7 -9 16
0 14 -3 14 -15 4 -10 -9 -15 -9 -15 -1 0 6 -9 11 -19 11 -11 0 -23 5 -27 11
-3 6 -19 9 -35 7 -15 -3 -26 -1 -24 3 3 4 -25 10 -62 14 -103 11 -250 52 -338
94 -44 21 -111 44 -148 51 -39 8 -67 19 -67 26 0 7 -15 30 -34 53 l-34 40 0
-39z m39 -27 c17 -20 19 -60 3 -60 -7 0 -15 8 -17 18 -3 10 -2 18 2 17 21 -2
21 4 1 22 -13 11 -18 20 -13 20 6 0 17 -7 24 -17z m46 -79 c-3 -3 -12 -4 -19
-1 -8 3 -5 6 6 6 11 1 17 -2 13 -5z m-12 -54 c-3 -5 -11 -10 -16 -10 -6 0 -7
5 -4 10 3 6 11 10 16 10 6 0 7 -4 4 -10z m29 -58 c3 -5 -1 -9 -9 -9 -8 0 -12
4 -9 9 3 4 7 8 9 8 2 0 6 -4 9 -8z m-57 -44 c2 -17 0 -19 -7 -8 -5 8 -6 18 -4
22 8 12 10 10 11 -14z m893 -188 c-1 -23 -2 -23 -14 -8 -7 10 -16 15 -19 11
-4 -3 -7 1 -7 10 0 10 8 15 20 14 14 -1 20 -8 20 -27z m10 -56 c0 -8 -5 -12
-10 -9 -6 4 -8 11 -5 16 9 14 15 11 15 -7z m-3 -86 c-2 -13 -4 -5 -4 17 -1 22
1 32 4 23 2 -10 2 -28 0 -40z m-142 -49 c11 -16 1 -19 -13 -3 -7 8 -8 14 -3
14 5 0 13 -5 16 -11z m75 -10 c0 -11 -4 -17 -10 -14 -5 3 -10 13 -10 21 0 8 5
14 10 14 6 0 10 -9 10 -21z m-47 -36 c-7 -2 -21 -2 -30 0 -10 3 -4 5 12 5 17
0 24 -2 18 -5z m67 -8 c0 -12 -19 -12 -23 0 -4 9 -1 12 9 8 7 -3 14 -7 14 -8z
m-53 -63 c-10 -9 -17 -11 -17 -5 0 6 6 14 13 17 9 5 9 7 0 12 -7 3 -9 13 -6
21 6 14 8 13 16 -6 8 -17 7 -26 -6 -39z m-237 34 c0 -8 8 -16 18 -18 16 -3 16
-4 -1 -11 -12 -4 -20 -1 -24 11 -4 9 -11 20 -17 24 -7 5 -4 8 7 8 9 0 17 -6
17 -14z m307 -28 l12 -33 -19 24 c-21 24 -26 41 -12 41 4 0 13 -15 19 -32z
m-93 -13 c3 -8 1 -15 -4 -15 -6 0 -10 7 -10 15 0 8 2 15 4 15 2 0 6 -7 10 -15z
m60 -10 c3 -8 12 -15 20 -15 10 0 14 -9 12 -27 -4 -35 -26 -43 -26 -9 0 21 -5
26 -25 26 -14 0 -25 6 -25 13 0 29 34 38 44 12z m-274 -18 c0 -5 5 -5 11 -1 7
4 9 0 5 -13 -4 -13 4 -34 24 -61 16 -23 30 -46 30 -52 0 -5 3 -9 8 -9 19 3 23
-2 12 -16 -11 -13 -10 -14 4 -9 11 4 15 2 11 -8 -4 -9 3 -19 17 -26 23 -12 23
-12 -2 -6 -39 10 -91 45 -84 56 4 6 -1 8 -15 3 -16 -5 -20 -3 -15 9 4 9 1 16
-6 16 -8 0 -10 9 -6 26 4 16 3 23 -3 20 -5 -4 -12 -2 -16 4 -3 5 1 10 10 10
13 0 14 4 5 20 -6 11 -17 20 -25 20 -8 0 -15 6 -15 14 0 9 10 13 25 12 14 0
25 -5 25 -9z m180 -27 c0 -5 -2 -10 -4 -10 -3 0 -8 5 -11 10 -3 6 -1 10 4 10
6 0 11 -4 11 -10z m87 -6 c3 -9 0 -20 -8 -26 -11 -8 -10 -9 4 -4 14 4 17 -1
17 -30 0 -24 4 -33 12 -28 8 5 9 0 5 -17 -4 -13 -7 -31 -8 -39 -1 -8 -5 -1
-10 15 -6 24 -7 19 -5 -23 2 -30 0 -48 -4 -42 -4 7 -10 -4 -15 -27 -7 -36 -8
-37 -18 -15 -8 18 -8 29 2 43 16 26 7 53 -24 73 -31 21 -32 38 -2 31 27 -6 52
8 42 25 -6 9 -9 9 -16 -1 -6 -11 -13 -11 -26 -3 -27 17 -29 44 -4 44 25 0 28
20 4 21 -12 1 -10 4 7 9 37 12 40 11 47 -6z m166 -111 c-7 -2 -19 -2 -25 0 -7
3 -2 5 12 5 14 0 19 -2 13 -5z m-466 -149 c-3 -3 -12 -4 -19 -1 -8 3 -5 6 6 6
11 1 17 -2 13 -5z m108 -4 c3 -6 -1 -7 -9 -4 -18 7 -21 14 -7 14 6 0 13 -4 16
-10z m35 -74 c0 -9 -30 -14 -35 -6 -4 6 3 10 14 10 12 0 21 -2 21 -4z m-270
-86 c0 -5 -2 -10 -4 -10 -3 0 -8 5 -11 10 -3 6 -1 10 4 10 6 0 11 -4 11 -10z
m379 -12 c-1 -13 -5 -34 -9 -48 -6 -19 -7 -14 -6 22 0 27 4 48 9 48 4 0 7 -10
6 -22z m-74 -88 c-27 -12 -43 -12 -25 0 8 5 22 9 30 9 10 0 8 -3 -5 -9z m72
-37 c-3 -10 -5 -5 -5 12 0 17 2 24 5 18 2 -7 2 -21 0 -30z m-117 11 c0 -2 -7
-4 -15 -4 -8 0 -15 4 -15 10 0 5 7 7 15 4 8 -4 15 -8 15 -10z"/>
<path d="M1825 900 c-13 -6 -15 -9 -5 -9 8 0 22 4 30 9 18 12 2 12 -25 0z"/>
<path d="M3342 860 c0 -14 2 -19 5 -12 2 6 2 18 0 25 -3 6 -5 1 -5 -13z"/>
<path d="M1531 654 c0 -11 3 -14 6 -6 3 7 2 16 -1 19 -3 4 -6 -2 -5 -13z"/>
<path d="M3411 654 c0 -11 3 -14 6 -6 3 7 2 16 -1 19 -3 4 -6 -2 -5 -13z"/>
<path d="M3446 563 c-6 -14 -5 -15 5 -6 7 7 10 15 7 18 -3 3 -9 -2 -12 -12z"/>
<path d="M1821 364 c0 -11 3 -14 6 -6 3 7 2 16 -1 19 -3 4 -6 -2 -5 -13z"/>
<path d="M3535 340 c-3 -5 -1 -10 4 -10 6 0 11 5 11 10 0 6 -2 10 -4 10 -3 0
-8 -4 -11 -10z"/>
<path d="M3552 290 c0 -14 2 -19 5 -12 2 6 2 18 0 25 -3 6 -5 1 -5 -13z"/>
<path d="M3576 237 c3 -10 9 -15 12 -12 3 3 0 11 -7 18 -10 9 -11 8 -5 -6z"/>
<path d="M3615 100 c-3 -5 -1 -10 4 -10 6 0 11 5 11 10 0 6 -2 10 -4 10 -3 0
-8 -4 -11 -10z"/>
<path d="M3631 44 c0 -11 3 -14 6 -6 3 7 2 16 -1 19 -3 4 -6 -2 -5 -13z"/>
</g>
</svg>
