<svg xmlns="http://www.w3.org/2000/svg" width="960" height="960" fill="none"><path fill="#fff" d="m663.087 453.84-.009-.027c1.82-.754 3.942-.532 5.939-.524a7.691 7.691 0 0 0 5.06-1.446c2.672-.018 5.006 2.032 6.151 4.447a21.124 21.124 0 0 1 1.492 7.847 1896.885 1896.885 0 0 1 .994 207.255l.231 1.278a94.596 94.596 0 0 1-12.65 1.394c-4.012.169-8.184.16-12.321.329a70.204 70.204 0 0 0-10.341 1.056l-.045-.24c1.267-64.333 2.539-128.663 3.817-192.99.107-5.415.222-10.918 1.829-16.085 1.607-5.167 4.927-10.057 9.853-12.294Z"/><path stroke="#fff" stroke-linecap="round" stroke-linejoin="round" stroke-width="3" d="M674.676 466.658a1117.34 1117.34 0 0 1-2.151 183.454"/><path fill="#171717" d="M291.538 421.839c4.678 4.98 4.891 12.543 4.838 19.369-.524 60.309-1.041 120.612-1.553 180.909l-.035 1.083a169.857 169.857 0 0 1-26.6-2.929l.222-1.092c.16-47.322.322-94.645.487-141.967.063-17.833.178-36 5.673-52.967l.222-.32c2.228 1.429 5.272 1.367 8.007 1.19 2.512-.169 5.211-.409 7.101-2.069.42-.374.788-.804 1.091-1.278l.547.071Z"/><path stroke="#fff" stroke-linecap="round" stroke-linejoin="round" stroke-width="3" d="m292.587 435.87-3.7 165.408"/><path fill="#fff" d="M331.147 625.561a27.749 27.749 0 0 1 7.607 3.835 29.29 29.29 0 0 1 10.182 14.185c3.018 8.256 3.639 17.949 3.879 26.87.239 9.454.3 19.574-4 27.82a24.526 24.526 0 0 1-1.9 3.116c-8.38 11.762-24.847 13.972-39.28 13.475-26.267-.914-52.027-7.3-77.335-14.389-24.642-6.907-49.55-14.736-70.437-29.516-23.488-16.617-40.629-41.463-49.826-68.724-9.197-27.261-10.7-56.8-6.4-85.244 3.427-22.653 10.617-45.04 23.533-63.957s31.929-34.167 54.068-40.034c4.758-1.261 9.96-2.273 13.3-5.894 1.961-2.131 3.027-4.936 4.864-7.173a15.642 15.642 0 0 1 5.122-4 234.656 234.656 0 0 0 64.463 14.8l1.074-.195a83.35 83.35 0 0 0 1.4 7.412 10.692 10.692 0 0 0 2.352 5.184c.299.298.626.566.977.8l-.222.32c-5.5 16.963-5.61 35.134-5.673 52.967-.158 47.323-.321 94.645-.488 141.967l-.222 1.092a169.87 169.87 0 0 0 26.6 2.929c3.64.133 7.27.169 10.9.133 8.516-.087 17.57-.397 25.462 2.221Z"/><path stroke="#fff" stroke-linecap="round" stroke-linejoin="round" stroke-width="3" d="M216.172 485.239c-24.872 20.482-35.854 56.351-26.713 87.246 9.141 30.895 37.874 55.014 69.886 58.663"/><path fill="#171717" d="M648.573 338.125a50.675 50.675 0 0 1 7.722 3.24 76.282 76.282 0 0 0 12.641 4.669 73.782 73.782 0 0 0 22.325 2.752c7.093-.32 13.848-3.852 20.426-6.16a35.23 35.23 0 0 1 11.992-2.3c2.4-.001 4.776.482 6.986 1.421 5.229 2.281 8.886 7.341 10.519 12.809 1.633 5.468 1.483 11.309.746 16.964-1.42 10.98-5.282 22.183-13.537 29.568a39.84 39.84 0 0 1-11.735 7.066 76.314 76.314 0 0 1-11.966 3.586 145.738 145.738 0 0 1-23.852 3.187c-4.643.24-9.294.284-13.937.16a101.819 101.819 0 0 1-5.6-.3 51.543 51.543 0 0 1-10.945-2.024 25.705 25.705 0 0 1-11.575-6.968c-5.717-6.223-7.2-15.153-8.034-23.559-1.216-12.286-1.5-25.2 3.657-36.422 1.429-3.1 3.453-6.187 6.587-7.536a11.16 11.16 0 0 1 7.58-.153Zm67.375 26.69c0-6.791-8.78-12.3-19.618-12.3s-19.618 5.5-19.618 12.3c0 6.8 8.779 12.294 19.618 12.294 10.839 0 19.618-5.504 19.618-12.294Zm-66.07-133.17a81.117 81.117 0 0 1 23.727 20.532 29.189 29.189 0 0 1-4.625-23.124c.6-2.663 2.788-5.823 5.309-4.785a5.15 5.15 0 0 1 2.175 2.273l17.753 28.619c2.157-2.45 2.574-5.921 3.9-8.895 1.326-2.974 4.634-5.743 7.59-4.376 1.864.87 2.734 3.044 3.018 5.086.284 2.042.151 4.163.816 6.107 1.616 4.7 7.1 6.711 11.993 7.608 4.893.897 10.333 1.518 13.67 5.2 2.362 2.592 3.16 6.2 3.879 9.631 3.533 16.99 7.072 33.98 10.617 50.97a4945.043 4945.043 0 0 0-10.421-7.625c.177 3 2.583 5.317 4.083 7.927 1.5 2.61 1.58 6.791-1.26 7.785-1.625.577-3.374-.239-4.9-1.038-3.684-1.918-7.365-3.836-11.043-5.753l-.249-.035a174.912 174.912 0 0 0 2.06-25.787c.044-5.539-.275-11.425-3.418-15.987-3.932-5.681-11.238-7.847-18.055-8.913-14.753-2.308-29.9-1.287-44.606-3.861a72.627 72.627 0 0 1-5.859-1.278c-12.711-3.329-24.828-10.315-30.4-22.006a3.028 3.028 0 0 1-.284-2.823c.586-.949 1.935-.994 3.054-.9a68.758 68.758 0 0 1 21.295 5.361 33.534 33.534 0 0 1-6.542-15.117c-.328-2.086-.213-4.7 1.651-5.7 1.583-.836 3.509.016 5.072.904Z"/><path fill="#fff" d="M663.565 435.953a3.54 3.54 0 0 1-2.112-.861c-1.048-1-1.048-2.645-.977-4.092.258-5.273.521-10.546.789-15.819l.037-.4c1.882.16 3.754.249 5.599.3 4.643.124 9.294.08 13.937-.16l.053.879c-.009 4.909-.015 9.818-.018 14.726-.009 1.483-.071 3.134-1.118 4.19a4.928 4.928 0 0 1-3.382 1.128c-.267.017-.524.026-.781.026-3.471.045-6.951.1-10.422.142-.535.021-1.072.001-1.605-.059Z"/><path fill="#fff" d="M675.594 435.873c.257 0 .514-.009.781-.026l.035.63c-.257 3.674-.512 7.349-.763 11.025a7.378 7.378 0 0 1-.826 3.48 3.67 3.67 0 0 1-.745.861 7.691 7.691 0 0 1-5.06 1.446c-2-.008-4.119-.23-5.939.524-.159.062-.31.142-.47.222a91.245 91.245 0 0 1 .959-18.082c.533.06 1.07.081 1.606.062 3.476-.044 6.951-.097 10.422-.142Zm-155.557-80.326c5.1 6.578 5.7 15.543 5.361 23.861-1.642 40.3-20.523 78.835-48.174 108.2-19.511 20.736-44 37.6-71.733 44.047-27.733 6.447-58.845 1.376-80.584-17.008l-1.473.133a2717.59 2717.59 0 0 0-11.709-106.308c-.506-3.924-1.027-7.845-1.562-11.762l.115-.018c5.779 17 14.372 33.421 27.465 45.689s31.166 19.99 49 17.931c19.529-2.246 36.377-15.818 46.9-32.418 10.523-16.6 15.6-36.022 19.582-55.267 1.474-7.092 3.045-14.664 8.131-19.813 3.444-3.5 7.954-5.353 12.8-6.347a70.876 70.876 0 0 1 12.392-1.189c8.308-.213 17.451.186 24.775 3.542a22.716 22.716 0 0 1 8.714 6.727Z"/><path fill="#171717" d="M336.909 252.674c4.411 4.82 1.668 13.209-3.755 16.857-5.423 3.648-12.357 3.9-18.9 4.021l-1.447.027c-17.691.337-35.385.677-53.083 1.021-5.664.106-11.913.452-15.952 4.42-4.536 4.457-4.474 11.656-4.225 18.011.612 15.517.52 31.037-.275 46.559l-.187-.009c-5.042-.053-6.213 7.332-11.122 8.5-3.285.781-6.72-1.846-7.59-5.1-.87-3.254.391-6.8 2.486-9.445 2.095-2.645 4.935-4.58 7.731-6.471-3.719-.71-7.066 2.068-10.412 3.826-3.346 1.758-8.637 1.855-9.765-1.758-.861-2.778 1.492-5.4 3.382-7.616a32.395 32.395 0 0 0 7.4-17c1.358-11.38-3.267-23.745 1.935-33.954 4.119-8.078 13.4-12.276 22.378-13.466 8.978-1.19 18.1.018 27.154-.3 9.054-.318 18.651-2.512 24.882-9.081 3.267-3.435 5.814-8.157 10.4-9.347a8.085 8.085 0 0 1 8.943 3.548 8.087 8.087 0 0 1-.777 9.59c-.772.621-1.527 1.26-2.281 1.9a7.473 7.473 0 0 0 2.281-1.9 28.005 28.005 0 0 1 8.638-5.168c4.145-1.367 9.213-.878 12.161 2.335Z"/><path fill="#fff" d="M323.434 514.779a2708.59 2708.59 0 0 1 7.714 110.782c-7.892-2.618-16.946-2.308-25.459-2.228-3.631.036-7.261 0-10.9-.133l.036-1.083c.515-60.3 1.032-120.603 1.553-180.909.053-6.826-.16-14.389-4.838-19.369l-.541-.071c1.314-2.024 1.527-4.749 1.624-7.235.045-1.189.089-2.316.133-3.408h.063a62.588 62.588 0 0 0 18.25-2.566l.657-.088c4.597 35.356 8.5 70.792 11.708 106.308Z"/><path fill="#fff" d="M292.755 411.125c.249-6.321.427-11.274.533-18.171l.186-1.207a222.02 222.02 0 0 1 16.378 3.329l.1-.009.213 1.642c.533 3.923 1.054 7.844 1.562 11.762l-.657.088a62.588 62.588 0 0 1-18.25 2.566h-.065Z"/><path fill="#171717" d="m293.474 391.747-.186 1.207c-.106 6.9-.284 11.85-.533 18.171-.044 1.092-.088 2.219-.133 3.408-.1 2.486-.31 5.211-1.624 7.235a6.119 6.119 0 0 1-1.092 1.278c-1.891 1.66-4.589 1.9-7.1 2.069-2.735.177-5.779.239-8.007-1.19a6.461 6.461 0 0 1-.977-.8 10.692 10.692 0 0 1-2.352-5.184 85.165 85.165 0 0 1-1.4-7.412 86.996 86.996 0 0 1-.488-21.047l.018-.355a224.746 224.746 0 0 1 23.874 2.62Z"/><path fill="#fff" d="m270.066 410.53-1.074.195a234.656 234.656 0 0 1-64.463-14.8 39.008 39.008 0 0 1 10.219-3.1 217.648 217.648 0 0 1 20.594-2.983 225.178 225.178 0 0 1 34.256-.71l-.018.355a87.015 87.015 0 0 0 .486 21.043Z"/><path fill="#171717" d="m268.282 344.86-.346.7c-6.311 2.148-10.306 8.672-8.628 15.126l-.133.595a10.444 10.444 0 0 1-2.779-1.057 14.002 14.002 0 0 1-6.693-11.122 20.784 20.784 0 0 1 3.675-12.765c1.536-2.335 4.252-4.643 6.835-3.569 2.37.986 2.823 4.048 3.711 6.463a12.269 12.269 0 0 0 4.358 5.629Z"/><path stroke="#171717" stroke-linecap="round" stroke-linejoin="round" stroke-width="3" d="M274.238 332.947c1.412 2.175 5.078 1.438 6.525-.7s1.349-4.945 1.189-7.528c-.568-9.222-1.134-18.442-1.7-27.66-.151-2.352-.275-4.8.684-6.951 1.322-2.938 4.473-4.713 7.651-5.219 3.178-.506 6.418.035 9.6.577m-28.209 1.295a7.381 7.381 0 0 0-6.888-3.755 7.369 7.369 0 0 0-3.845 1.369 7.37 7.37 0 0 0-2.529 3.203m9.684 17.096-.852-6.684m28.725 9.205v-8.77m-15.738 48.68a12.81 12.81 0 0 1-10.253-2.245 12.273 12.273 0 0 1-4.358-5.628c-.888-2.415-1.341-5.477-3.711-6.463-2.583-1.074-5.3 1.234-6.835 3.569a20.784 20.784 0 0 0-3.675 12.765 13.996 13.996 0 0 0 6.693 11.122c.871.483 1.807.839 2.779 1.057a10.307 10.307 0 0 0 9.711-2.548"/><path stroke="#171717" stroke-linecap="round" stroke-linejoin="round" stroke-width="3" d="M259.308 360.687c-1.678-6.454 2.317-12.978 8.628-15.126m16.512 43.464c-.213-5.069-.426-10.209.683-15.153 1.109-4.944 3.711-9.773 8.007-12.472 4.945-3.089 11.824-3.3 15.33-7.963 1.935-2.565 2.353-5.929 2.672-9.134a458.796 458.796 0 0 0 1.687-69.683m3.283-19.114a8.087 8.087 0 0 0-3.11-12.838 8.085 8.085 0 0 0-5.056-.3c-4.59 1.19-7.137 5.912-10.4 9.347-6.231 6.569-15.827 8.762-24.882 9.081-9.055.319-18.17-.887-27.154.3-8.984 1.187-18.259 5.388-22.378 13.466-5.2 10.209-.577 22.574-1.935 33.954a32.395 32.395 0 0 1-7.4 17c-1.89 2.219-4.243 4.838-3.382 7.616 1.128 3.613 6.409 3.524 9.765 1.758 3.356-1.766 6.693-4.536 10.412-3.826-2.8 1.891-5.645 3.817-7.731 6.471-2.086 2.654-3.347 6.178-2.486 9.445.861 3.267 4.305 5.885 7.59 5.1 4.909-1.172 6.08-8.557 11.122-8.5"/><path stroke="#171717" stroke-linecap="round" stroke-linejoin="round" stroke-width="3" d="M316.11 255.506c-.772.621-1.527 1.26-2.281 1.9a7.464 7.464 0 0 0 2.281-1.9v0Z"/><path stroke="#171717" stroke-linecap="round" stroke-linejoin="round" stroke-width="3" d="M235.127 387.77a515.577 515.577 0 0 0 4.146-44.18c.79-15.508.882-31.028.275-46.559-.249-6.355-.311-13.554 4.225-18.011 4.039-3.968 10.288-4.314 15.952-4.42 17.7-.346 35.394-.687 53.083-1.021l1.447-.027c6.542-.124 13.484-.373 18.9-4.021 5.416-3.648 8.166-12.037 3.755-16.857-2.948-3.213-8.016-3.7-12.162-2.335a27.99 27.99 0 0 0-8.637 5.167m-84.872 230.601a67.842 67.842 0 0 0-32.815 41.25 67.86 67.86 0 0 0 6.615 52.294c9.614 16.6 26.08 28.538 44.047 35.267a121.18 121.18 0 0 0 19.111 5.353 169.87 169.87 0 0 0 26.6 2.929c3.64.133 7.27.169 10.9.133 8.513-.08 17.567-.39 25.459 2.228a27.749 27.749 0 0 1 7.607 3.835 29.29 29.29 0 0 1 10.182 14.185c3.018 8.256 3.639 17.949 3.879 26.87.239 9.454.3 19.574-4 27.82a24.526 24.526 0 0 1-1.9 3.116c-8.38 11.762-24.847 13.972-39.28 13.475-26.267-.914-52.027-7.3-77.335-14.389-24.642-6.907-49.55-14.736-70.437-29.516-23.488-16.617-40.629-41.463-49.826-68.724-9.197-27.261-10.7-56.8-6.4-85.244 3.427-22.653 10.617-45.04 23.533-63.957s31.929-34.167 54.068-40.034c4.758-1.261 9.96-2.273 13.3-5.894 1.961-2.131 3.027-4.936 4.864-7.173a15.622 15.622 0 0 1 5.122-4 38.993 38.993 0 0 1 10.215-3.106 217.648 217.648 0 0 1 20.594-2.983 225.178 225.178 0 0 1 34.256-.71c4.909.274 9.8.709 14.673 1.305a221.503 221.503 0 0 1 25.578 4.643"/><path stroke="#171717" stroke-linecap="round" stroke-linejoin="round" stroke-width="3" d="m309.923 394.889.027.178.213 1.642c.533 3.923 1.054 7.844 1.562 11.762 4.6 35.356 8.503 70.792 11.709 106.308a2708.59 2708.59 0 0 1 7.714 110.782c.008.125.008.249.017.373"/><path stroke="#171717" stroke-linecap="round" stroke-linejoin="round" stroke-width="3" d="M310.278 396.691c5.779 17 14.372 33.421 27.465 45.689s31.166 19.99 49 17.931c19.529-2.246 36.377-15.818 46.9-32.418 10.523-16.6 15.6-36.022 19.582-55.267 1.474-7.092 3.045-14.664 8.131-19.813 3.444-3.5 7.954-5.353 12.8-6.347a70.876 70.876 0 0 1 12.392-1.189c8.308-.213 17.451.186 24.775 3.542a22.709 22.709 0 0 1 8.708 6.728c5.1 6.578 5.7 15.543 5.361 23.861-1.642 40.3-20.523 78.835-48.174 108.2-19.511 20.736-44 37.6-71.733 44.047-27.733 6.447-58.845 1.376-80.584-17.008"/><path stroke="#171717" stroke-linecap="round" stroke-linejoin="round" stroke-width="3" d="M473.948 345.481c-12.383-9.143-33.465-29.462-29.515-34.975 2.279-3.181 13.47 2.776 19.255 6.496a41.718 41.718 0 0 1 13.9 14.823c-5.471-23.446-17.84-71.512-8.318-71.512 9.676-1.305 15.348 39.227 20.133 59.7-2.218-19.389-6.655-58.356.018-58.356 9.649-1.349 7.554 39.671 10.741 63.15 2.086-15.982 3.884-61.538 10.235-63.016 6.351-1.478 9.32 57.832.932 87.028m78.089 268.38a290.024 290.024 0 0 1-69.585 69.5c-.2.151-.409.293-.613.435-7.723 5.406-17.043 10.67-26.1 8.033-6.764-1.97-11.531-7.891-15.445-13.75a121.54 121.54 0 0 1-3.276-5.193c-5.308-8.948-9.258-18.819-8.761-29.1a40.692 40.692 0 0 1 6.143-19.121 71.457 71.457 0 0 1 16.022-17.833 105.144 105.144 0 0 1 6.391-4.838c14.319-10.031 30.581-17.718 42.449-30.563 12.818-13.874 19.236-32.4 24.154-50.642 4.918-18.242 8.77-37.034 17.718-53.678s24.172-31.2 42.893-33.749c7.509-1.021 15.5-.142 22.36-3.356 6.86-3.214 12.126-15.41 6.587-20.585m66.303-4.608c-3.489 3.968-1.083 12.1 3.036 15.428 4.119 3.328 9.569 4.305 14.717 5.539 46.355 11.069 81.534 50.092 102.563 92.86 13.617 27.7 22.671 58.587 19.413 89.283-4.651 43.816-34.548 82.359-72.354 104.986-37.478 22.422-81.88 30.8-125.554 32.018-.4.018-.79.027-1.189.036-9.33.239-19.689-.222-26.373-6.738a21.54 21.54 0 0 1-5.593-9.755c-1.757-6.125-1.615-13.156-1.269-19.645.417-7.918 1.1-16.448 4.554-23.346a23.634 23.634 0 0 1 4.935-6.755c3.942-3.71 8.806-5.619 14.088-6.613a70.204 70.204 0 0 1 10.341-1.056c4.137-.169 8.309-.16 12.321-.329a94.269 94.269 0 0 0 12.65-1.394 99.21 99.21 0 0 0 65.357-42.232 99.23 99.23 0 0 0 14.791-76.397M566.888 714.294c-15.916 1.784-30.474 4.172-29.914 8.539 1.025 7.992 37.824 3.276 57.592-.967-14.958 3.32-29.918 6.64-44.881 9.959a12.967 12.967 0 0 0-5.6 2.22c-1.553 1.3-2.406 3.692-1.34 5.414 1 1.625 3.16 2.007 5.059 2.2 25.21 2.6 53.163-1.412 77.1-9.738m-58.016-17.627a126.867 126.867 0 0 0 26.009-2.743c-7.412.888-16.936 1.713-26.009 2.743Z"/><path stroke="#171717" stroke-linecap="round" stroke-linejoin="round" stroke-width="3" d="M593.315 695.892c-21.624.142-56.217 6.951-54.522 15.339 0 4.594 18.649 3.092 28.1 3.063m26.422-18.402c1.658.119 3.32.148 4.98.089a81.327 81.327 0 0 0-4.98-.089Zm35.294-7.075c-13.875-1.207-26.95-3.524-40.816-4.731-1.163-.1-2.334-.2-3.506-.213a13.615 13.615 0 0 0-4.785.7c-2.618.959-4.9 3.453-4.651 6.241 0 3.511 12.032 4.632 18.464 5.077m17.096-209.944a1258.565 1258.565 0 0 0-20.9 131.261 1258.793 1258.793 0 0 0-5.21 65.928m108.957-338.205c-4.067-.817-8.135-1.637-12.205-2.459a272.224 272.224 0 0 1 8.877-50.429c8.672 1.038 17.344 2.073 26.018 3.106m-33.519-3.089a41.453 41.453 0 0 0-19.21-.4m33.111 85.449c10.835 0 19.618-5.504 19.618-12.294 0-6.789-8.783-12.294-19.618-12.294-10.835 0-19.618 5.505-19.618 12.294 0 6.79 8.783 12.294 19.618 12.294Z"/><path stroke="#171717" stroke-linecap="round" stroke-linejoin="round" stroke-width="3" d="M723.679 340.325a35.23 35.23 0 0 0-11.992 2.3c-6.578 2.308-13.333 5.84-20.426 6.16a73.782 73.782 0 0 1-22.325-2.752 76.282 76.282 0 0 1-12.641-4.669 50.776 50.776 0 0 0-7.722-3.24 11.17 11.17 0 0 0-7.581.151c-3.134 1.349-5.158 4.438-6.587 7.536-5.157 11.221-4.873 24.136-3.657 36.422.835 8.406 2.317 17.336 8.034 23.559a25.705 25.705 0 0 0 11.575 6.968 51.48 51.48 0 0 0 10.945 2.024c1.882.16 3.755.249 5.6.3 4.643.124 9.294.08 13.937-.16a145.738 145.738 0 0 0 23.852-3.187 76.207 76.207 0 0 0 11.966-3.586 39.818 39.818 0 0 0 11.735-7.066c8.255-7.385 12.117-18.588 13.537-29.568.737-5.655.9-11.5-.746-16.964-1.646-5.464-5.29-10.528-10.519-12.809a17.835 17.835 0 0 0-6.985-1.419v0Zm.009-.632c.87-4.021 1.616-7.989 2.219-11.939a174.912 174.912 0 0 0 2.06-25.787c.044-5.539-.275-11.425-3.418-15.987-3.932-5.681-11.238-7.847-18.055-8.913-14.753-2.308-29.9-1.287-44.606-3.861a72.627 72.627 0 0 1-5.859-1.278c-12.711-3.329-24.828-10.315-30.4-22.006a3.028 3.028 0 0 1-.284-2.823c.586-.949 1.935-.994 3.054-.9a68.786 68.786 0 0 1 21.295 5.361 33.534 33.534 0 0 1-6.542-15.117c-.328-2.086-.213-4.7 1.651-5.7 1.589-.843 3.515.009 5.078.9a81.117 81.117 0 0 1 23.727 20.532 29.182 29.182 0 0 1-4.625-23.124c.6-2.663 2.788-5.823 5.309-4.785a5.15 5.15 0 0 1 2.175 2.273l17.753 28.619c2.157-2.45 2.574-5.921 3.9-8.895 1.326-2.974 4.634-5.743 7.59-4.376 1.864.87 2.734 3.044 3.018 5.086.284 2.042.151 4.163.816 6.107 1.616 4.7 7.1 6.711 11.993 7.608 4.893.897 10.333 1.518 13.67 5.2 2.362 2.592 3.16 6.2 3.879 9.631 3.533 16.99 7.072 33.98 10.617 50.97a4945.043 4945.043 0 0 0-10.421-7.625c.177 3 2.583 5.317 4.083 7.927 1.5 2.61 1.58 6.791-1.26 7.785-1.625.577-3.374-.239-4.9-1.038-3.684-1.918-7.365-3.836-11.043-5.753"/><path stroke="#171717" stroke-linecap="round" stroke-linejoin="round" stroke-width="3" d="M655.976 272.132a516.295 516.295 0 0 0-7.4 65.99c0 .062-.009.115-.009.178M687 362.025c2.362 1.944 4.776 3.933 7.652 4.962 2.876 1.029 6.365.924 8.69-1.056a13.21 13.21 0 0 0 2.894-4.137M349.648 643.288c12.987-7.7 26.177-15.472 40.744-19.44 14.026-3.817 29.72-3.728 42.422 3.214.489.266.977.55 1.456.834 1.855 1.11 3.737 2.5 4.456 4.545 1.27 3.6-1.775 7.527-5.388 8.744-3.613 1.217-7.554.541-11.344.106a86.837 86.837 0 0 0-34.433 2.947"/><path stroke="#171717" stroke-linecap="round" stroke-linejoin="round" stroke-width="3" d="M406.156 641.193a55.632 55.632 0 0 0-26.692 33.066c-.763 2.663-1.278 5.717.231 8.043 1.447 2.228 4.447 3.062 7.075 2.61a16.434 16.434 0 0 0 7.048-3.6 53.64 53.64 0 0 0 10.93-11.447c2.477-3.506 4.82-7.563 8.832-9.1 3.09-1.181 6.534-.6 9.836-.4a42.045 42.045 0 0 0 22.281-4.926 39.559 39.559 0 0 0 6.231-4.084M433 626.698a68.767 68.767 0 0 1 38.108.9"/><path stroke="#171717" stroke-linecap="round" stroke-linejoin="round" stroke-width="3" d="M445.96 655.925c2.024-.062 4.119-1 6.01-.284a5.276 5.276 0 0 1 3.63 4.447c.08 3.107-3.311 5.024-6.231 6.072a102.104 102.104 0 0 1-36.875 5.956m37.203-5.464c1.731.222 3.506-.435 5.042.4a4.83 4.83 0 0 1 2.716 4.155 5.765 5.765 0 0 1-1.34 3.133 18.526 18.526 0 0 1-5.353 4.714 40.477 40.477 0 0 1-7.43 3.417 99.783 99.783 0 0 1-36.066 5.921c.346-.009.7-.009 1.047-.017m4.435 10.491c7.048-.746 26.657-3.311 33.1-6.258 2.636-1.207 5.335-2.717 6.781-5.229a6.646 6.646 0 0 0 .764-4.243 4.589 4.589 0 0 0-2.237-3.435m2.252 3.435a48.126 48.126 0 0 0 20.762-6.773m-124.79 22.192c3.143.719 17.71.018 20.923-.346m1.633-.772a20.584 20.584 0 0 1 8.984-7.612c1.429-.612 3.222-1.012 4.429-.026 1.119.914 1.172 2.583 1.092 4.03a42.745 42.745 0 0 1-.346 3.533 23.103 23.103 0 0 1-1.083 4.669 18.1 18.1 0 0 1-.7 1.731 12.333 12.333 0 0 1-7.279 6.746 8.434 8.434 0 0 1-7.563-1.393c-2.228-1.811-.728-4.421.088-6.827a21.065 21.065 0 0 1 2.378-4.851Z"/><path stroke="#171717" stroke-linecap="round" stroke-linejoin="round" stroke-width="3" d="M385.012 702.035c-.382 2.352-1.554 6.365-.258 8.264a2.967 2.967 0 0 0 1.82 1.057c3.382.781 7.838-1.1 9.96-3.844.379-.493.726-1.009 1.039-1.545a26.708 26.708 0 0 0 2.742-8.06c.027-.124.054-.248.072-.381a7.32 7.32 0 0 0-2.007-6.365c-4.065-3.64-10.181 2.308-12.054 5.734-.08.151-.16.311-.231.471a14.62 14.62 0 0 0-1.021 4.287c-.018.124-.035.249-.062.382Z"/><path stroke="#171717" stroke-linecap="round" stroke-linejoin="round" stroke-width="3" d="M397.803 705.381c-.08.2-.159.391-.23.586a10.635 10.635 0 0 0-.932 4.075 4.033 4.033 0 0 0 2.476 3.817c1.42.453 2.956-.222 4.225-1.012a21.397 21.397 0 0 0 8.744-10.9c.374-.987.593-2.026.648-3.08a5.032 5.032 0 0 0-.568-2.716 5.331 5.331 0 0 0-5.726-2.291 9.08 9.08 0 0 0-5.219 3.8M269.578 389.483a86.946 86.946 0 0 0 .488 21.047 82.57 82.57 0 0 0 1.4 7.412 10.67 10.67 0 0 0 2.352 5.184c.298.299.625.567.977.8 2.228 1.429 5.272 1.367 8.007 1.19 2.512-.169 5.21-.409 7.1-2.069.42-.374.788-.804 1.092-1.278 1.314-2.024 1.527-4.749 1.624-7.235.045-1.189.089-2.316.133-3.408.249-6.321.427-11.274.533-18.171m-18.708 31.29c-5.5 16.963-5.61 35.134-5.673 52.967-.159 47.323-.321 94.646-.488 141.967m23.124-197.34c4.678 4.98 4.891 12.543 4.838 19.369a845977.55 845977.55 0 0 0-1.553 180.909m366.441-206.936c-.266 5.273-.529 10.546-.789 15.819-.071 1.447-.071 3.089.977 4.092a3.54 3.54 0 0 0 2.112.861c.534.06 1.07.081 1.607.062 3.471-.044 6.95-.1 10.421-.142.257 0 .515-.009.782-.026a4.932 4.932 0 0 0 3.381-1.128c1.047-1.056 1.11-2.707 1.119-4.19 0-4.908.006-9.817.018-14.726"/><path stroke="#171717" stroke-linecap="round" stroke-linejoin="round" stroke-width="3" d="M663.574 435.864a.332.332 0 0 0-.008.089 91.253 91.253 0 0 0-.959 18.082c.16-.08.311-.16.47-.222 1.82-.754 3.942-.532 5.939-.524a7.68 7.68 0 0 0 5.06-1.446 3.65 3.65 0 0 0 .745-.861c.557-1.074.84-2.27.826-3.48.257-3.675.511-7.35.763-11.025"/><path stroke="#171717" stroke-linecap="round" stroke-linejoin="round" stroke-width="3" d="M663.104 453.831c-.009 0-.009.009-.018.009-4.926 2.237-8.237 7.128-9.853 12.294-1.616 5.166-1.722 10.67-1.829 16.085-1.267 64.333-2.539 128.663-3.817 192.99m26.471-223.366h.018c2.672-.018 5.006 2.032 6.151 4.447a21.144 21.144 0 0 1 1.492 7.847 1896.885 1896.885 0 0 1 .994 207.255m20.635-174.837c4.155.648 8.324 1.236 12.508 1.766 4.1.533 8.211 1 12.321 1.412a477.904 477.904 0 0 0 22.476 1.731"/><path stroke="#171717" stroke-linecap="round" stroke-linejoin="round" stroke-width="3" d="M702.548 496.625a169.296 169.296 0 0 0 1.731 36.839c.692 4.42 1.695 9.081 4.793 12.312 2.672 2.787 6.595 4.11 10.457 4.376 3.867.113 7.734-.25 11.513-1.083 5.548-.985 11.771-2.414 14.656-7.261 1.482-2.486 1.793-5.468 2.068-8.344a74856.24 74856.24 0 0 0 3.054-31.513"/><path stroke="#171717" stroke-linecap="round" stroke-linejoin="round" stroke-width="3" d="M728.224 499.254c.382-3.383.728-6.995-.817-10.031-1.545-3.036-5.743-4.962-8.477-2.93-1.9 1.421-2.334 4.048-2.574 6.409a186.846 186.846 0 0 0-.5 5.619 203.412 203.412 0 0 0-.008 30.604m-227.723 81.643c-.169 28.522 11.326 55.161 31.282 75.533m138.584-11.336a226.627 226.627 0 0 0 .488 73.5.608.608 0 0 0 .018.133M203.615 395.581c.3.116.612.24.914.347a234.575 234.575 0 0 0 64.463 14.8m23.826.397a62.588 62.588 0 0 0 18.25-2.566m365.955-99.748a5.594 5.594 0 0 0-9.658-.329m26.763 2.521a6.733 6.733 0 0 1 5.95-3.257 6.733 6.733 0 0 1 5.768 3.568m148.53 113.902a91.862 91.862 0 0 0 38.751 113.445c9.165 5.379 19.97 9.859 24.6 19.423 4.254 8.787 1.892 19.323-1.829 28.349-2.654 6.438-6.138 12.822-11.729 16.974-5.591 4.152-13.72 5.524-19.54 1.7-5.82-3.824-7.286-13.52-1.79-17.8a7.24 7.24 0 0 1 7.474-1.086c2.373 1.192 3.63 4.476 2.2 6.718m-91.11 133.71a50.95 50.95 0 0 0 42.094-26.924m-473.893 37.033c22.306 11.27 50.938 8.667 70.846-6.442m-46.012 27.371 18.894-3.2m-30.146-144.375a33.658 33.658 0 0 1 34-.414m-287.833 76.621c-22.613-3.627-41.326-24.245-42.751-47.1m-29.598-90.262a45.48 45.48 0 0 1-12.219-14.1M40 552.641l13.162-15.035m8.058-54.254c3.524-7.77 17.053-6.179 19.893 1.866s-4.453 17.307-12.958 17.977c-8.505.67-16.51-5.719-19.54-13.695-3.029-7.976-1.81-17.045 1.344-24.975a55.01 55.01 0 0 1 22.265-26.4c16.974-10.362 40.792-12.653 50.116-30.217 3.424-6.45 4.015-14.766.02-20.88-3.995-6.114-13.131-8.782-19.075-4.54-4.554 3.25-6.183 9.7-4.533 15.041 1.65 5.341 6.117 9.527 11.254 11.743 11.033 4.757 25.253.148 31.4-10.176 6.372-10.707 3.972-24.162 3.63-36.616-.342-12.454 3.555-27.4 15.449-31.112m44.063-54.043a19.868 19.868 0 0 1 13.839-19.743m98.068-36.636a34.694 34.694 0 0 1 11.148-16.1m1.211 13.054L309.95 202m47.736 42.316 10.315-7.552m-.832 9.546-7.521-12.218m177.5 51.663a30.046 30.046 0 0 0-10.852-29.473m23.532 16.171-5.647-10.335m190.487-40.245-2.82-14.1m-6.58 9.397 12.219-3.76m25.33 40.367 25.385-23.488m-4.62 21.636-16.929-23.489m71.223 127.041-12.262-15.945m-2.596 14.866a38.955 38.955 0 0 0 15.979-15.038M635.548 484.325l-7.106-9.187m59.798-44.544a145.498 145.498 0 0 0 22.078-7.728m-54.289 8.395-2.924-1.671m55.929 35.035 9.82-9.4m45.894 14.673-5.6-8.519m37.842 57.765 9.5-10.954m-21.811 49.65-6.226-12.552m-66.076 50.943 7.865-10.913m10.528 36.022-3.338-9.609m-116.821 44.784 8.845-10.384-.6.679m2.492-47.615-7.52-11.278m14.4-34.921 7.92-8.371M574.58 554.9a13.45 13.45 0 0 1-4.712-7.062m-2.88 54.234 7.935-12.534m-39.752 56.074-4.323-10.8m-18.469-23.004a35.888 35.888 0 0 1 9.51-3.645m284.073-5.374 13.1-8.859m-45.641 48.089.923-16.346m45.121 18.834.588-10.655m-56.254 45.188 13.16 1.235m-65.832 14.982 2.494-11.281M681.1 720.23l10.028.588M890.691 515.12l2.819-13.158"/><path stroke="#171717" stroke-linecap="round" stroke-linejoin="round" stroke-width="3" d="M897.27 510.425a17.982 17.982 0 0 1-11.279-2.82m-448.672 28.414a66.183 66.183 0 0 0 32.641-23.069m-247.953-63.309-11.776-6.266s-2.009 7.519-2.009 8.772c0 1.253 13.785-2.506 13.785-2.506Zm-51.381 76.863-12.114 7.81 17.963 7.593-5.849-15.403Zm-19.633-67.98-13.785 6.573 13.785 10.026v-16.599Zm98.666 76.334-13.357 4.595 8.681 11.916 4.676-16.511Zm150.812-49.292-14.005 17.678h18.227l-4.222-17.678Zm75.935-61.321 16.291.958-6.683 14.57-9.608-15.528Zm-31.748 19.13 1.671 9.028-13.968-2.762 12.297-6.266ZM324.769 639.216l6.394 13.025h-27.28l20.886-13.025Zm-97.646 32.931-10.128-23.813-11.697 18.28 21.825 5.533Zm-62.763-70.075-11.278 17.111-5.013-17.111h16.291Zm153.163-30.036-9.881 9.19 12.901 6.691-3.02-15.881Z"/><path fill="#171717" d="M312.814 270.001c-14.986-2.966-31.106-2.211-46.333-1.683-12.461.432-22.5 5.77-23.442 19.289-.5 7.188.222 14.578.357 21.779.157 8.326.024 16.651-.4 24.974a464.277 464.277 0 0 1-4.693 48.374c-.889 5.65 7.515 8.239 8.769 2.417 6.034-28.013 8.888-56.716 6.637-85.367-.422-5.37-2.8-14.164.935-18.831 3.269-4.088 9.895-3.993 14.612-4.135 14.53-.438 29.306.371 43.559-2.84 1.935-.436 2-3.582 0-3.977h-.001Zm-82.51 116.275c-8.908 3.229-17.3 8.058-25.622 12.577-4.269 2.318-8.558 4.008-12.677 6.635a4969.803 4969.803 0 0 0-12.705 8.132c-15.015 9.641-30.175 19.716-41.659 33.586-21.533 26.007-32.55 60.711-33.779 94.172-1.183 32.227 6.839 65.771 25.688 92.266 20.214 28.415 50.4 46.876 82.611 58.951a298.045 298.045 0 0 0 127.193 17.611c4.872-.382 9.047-3.885 9.047-9.047 0-4.613-4.148-9.414-9.047-9.047A285.707 285.707 0 0 1 233.8 680.443c-29.945-9.222-59.486-23.459-80.765-47.047-19.697-21.836-29.591-51.236-30.717-80.336-1.162-30.033 5.831-61.577 22.221-86.981 10.1-15.651 24.429-26.854 39.609-37.277 8.177-5.614 16.983-10.715 24.248-17.457 7.781-7.222 17.213-12.517 25.01-19.737 2.26-2.093-.082-6.422-3.1-5.327l-.002-.005Zm424.622 28.511c4.116 10.349-9.968 14.5-17.451 14.775-10.028.362-19.8 2.631-28.358 8.082-17.808 11.347-27.563 31.226-33.5 50.795-6.407 21.121-8.794 44.147-20.275 63.394-9.161 15.359-24.188 25.718-38.542 35.787-8.266 5.8-16.562 11.634-24.172 18.286-7.262 6.347-17.032 15-18.788 24.888-1.257 7.076 6.042 11 11.517 6.7 3.607-2.831 6.041-6.811 9.058-10.261 3.055-3.455 6.339-6.7 9.83-9.713 6.923-6.042 14.514-11.241 22.031-16.5 15.428-10.8 30.961-21.967 41.5-37.9 13.221-20 16.47-44.207 22.539-66.877 5.213-19.471 13.883-39.493 32.745-49.205 10.038-5.169 23.12-3.738 32.324-10.676 7.632-5.751 11.617-16.927 5.107-24.813-2.063-2.5-6.776.186-5.563 3.238h-.002Z" opacity=".1"/><path fill="#171717" d="M617.975 482.379c-6.521 3.763-7.164 14.09-8.8 20.733-2.026 8.224-3.607 16.568-5.1 24.907-2.936 16.443-5.18 33.039-7.248 49.612a1142.822 1142.822 0 0 0-5.1 49.712 1149.378 1149.378 0 0 0-2.377 37.159c-.214 4.5-1.066 9.425.519 13.7 1.949 5.265 10.578 8.066 13.451 1.758 3.394-7.452 2.27-17.128 2.705-25.248a1140.1 1140.1 0 0 1 6.414-74.168c1.934-16.166 4.39-32.24 6.878-48.327 1.3-8.415 2.707-16.818 3.842-25.256.9-6.7 4.624-17.22.263-23.157a4.08 4.08 0 0 0-5.451-1.429l.004.004Zm15.389 211.202c3.086-.442 6.007-1.976 8.953-2.973a109.81 109.81 0 0 1 11.622-3.127c8.509-1.877 17.323-1.712 25.986-2.126a112.588 112.588 0 0 0 45.97-11.869 106.894 106.894 0 0 0 35.886-29.608 106.9 106.9 0 0 0 19.914-42.046 111.53 111.53 0 0 0 2.686-27.259c-.267-9.148-.658-20.227-6.534-27.61-3.26-4.1-11.3-1.929-12.143 3.206-1.233 7.523 1.5 15.193 1.858 22.779a92.96 92.96 0 0 1-19.44 61.844 94.829 94.829 0 0 1-33.133 26.12c-13.963 6.725-28.429 8.347-43.7 9.114-9.216.464-18.959 1.168-27.274 5.54-5.776 3.036-13.313 8.922-13.025 16.207a1.913 1.913 0 0 0 2.374 1.808Z" opacity=".1"/></svg>